<svg xmlns="http://www.w3.org/2000/svg">
  <defs>
    <symbol id="hamburger" viewBox="0 0 22 15">
      <title>Menu toggle</title>
      <rect x="0" y="0" width="22" height="3"/>
      <rect x="0" y="6" width="22" height="3"/>
      <rect x="0" y="12" width="22" height="3"/>
    </symbol>
    <symbol id="close" viewBox="0 0 13 13">
      <title>Close</title>
      <polygon points="13,2.3 10.7,0 6.5,4.2 2.3,0 0,2.3 4.2,6.5 0,10.7 2.3,13 6.5,8.8 10.7,13 13,10.7 8.8,6.5 "/>
    </symbol>
    <symbol id="arrow-left" viewBox="0 0 8.8 13">
      <title>Left arrow</title>
      <polygon points="6.5,0 8.8,2.3 4.6,6.5 8.8,10.6 6.5,13 0,6.5 "/>
    </symbol>
    <symbol id="arrow-right" viewBox="0 0 8.8 13">
      <title>Right arrow</title>
      <polygon points="2.3,13 0,10.6 4.2,6.5 0,2.3 2.3,0 8.8,6.5 "/>
    </symbol>
    <symbol id="crystal-ball" viewBox="0 0 23 27.3">
      <title>Crystal ball</title>
      <path d="M16.4,17.8c-1.3,1.1-3,1.7-4.9,1.7c-0.3,0-0.5-0.2-0.5-0.5s0.2-0.5,0.5-0.5c0.2,0,0.4,0,0.5,0c1-0.1,1.9-0.3,2.8-0.8 c2.1-1.1,3.5-3.2,3.7-5.7c0-0.2,0-0.4,0-0.5c0-0.3,0.2-0.5,0.5-0.5s0.5,0.2,0.5,0.5C19.5,14,18.3,16.3,16.4,17.8z"/>
		  <path d="M5,8.1C4.9,8.3,4.7,8.4,4.5,8.4c-0.2,0-0.3-0.1-0.4-0.2c0,0-0.1-0.1-0.1-0.1C3.9,7.6,3.6,7.2,3.3,6.8 C2.8,5.9,1.9,5.3,0.9,4.9C0.6,4.9,0.5,4.7,0.5,4.5S0.6,4.1,0.9,4C2.3,3.5,3.5,2.3,4,0.9c0.1-0.2,0.2-0.4,0.5-0.4 c0.2,0,0.4,0.1,0.5,0.4c0.2,0.5,0.4,1,0.7,1.4C6,2.6,6.3,3,6.7,3.3C7.2,3.6,7.6,3.8,8.1,4c0.2,0.1,0.3,0.3,0.3,0.5 S8.3,4.9,8.1,4.9C6.6,5.4,5.4,6.6,5,8.1z M6,4C5.4,3.5,4.9,2.9,4.5,2.2C4,3.2,3.2,4,2.3,4.5C3,4.9,3.6,5.4,4.1,6 c0.2,0.2,0.3,0.4,0.4,0.7C5,5.8,5.8,5,6.7,4.5C6.5,4.3,6.2,4.2,6,4z"/>
		  <path d="M2,11.5c0,2.6,1,4.9,2.7,6.7c1.7,1.8,4.1,2.8,6.8,2.8c2.7,0,5.1-1.1,6.9-2.9c1.6-1.7,2.6-4,2.6-6.6C21,6.3,16.7,2,11.5,2 c-0.9,0-1.8,0.1-2.6,0.4c-0.4,0.1-0.7,0-1-0.2C7.8,2.1,7.8,2,7.8,1.9c0-0.1-0.1-0.2-0.1-0.2C7.5,1.1,7.8,0.6,8.3,0.4 c1-0.3,2.1-0.4,3.2-0.4C17.8,0,23,5.2,23,11.5c0,2.8-1,5.3-2.6,7.3c0.1,0.1,0.2,0.2,0.2,0.3l2,4.7c0,2-4.8,3.6-10.8,3.6 S0.9,25.7,0.9,23.8l2-4.6c-1.8-2-2.9-4.7-2.9-7.6c0-1,0.1-2,0.4-3C0.5,8,1.1,7.7,1.6,7.8C1.8,7.9,1.9,7.9,2,8.1 c0.1,0.1,0.2,0.2,0.2,0.3c0.1,0.2,0.1,0.4,0,0.6C2.1,9.8,2,10.7,2,11.5z"/>
    </symbol>
    <symbol id="flag" viewBox="0 0 32 24.8">
      <title>Flag (undefined)</title>
      <path fill="#DEDCE1" stroke="#2D3F50" stroke-width="2" stroke-linecap="round" stroke-linejoin="round" stroke-miterlimit="10" d="M31,21.8C20,18.5,12,26.3,1,23c0-8,0-12,0-20c11,3.3,19-4.4,30-1.1C31,9.8,31,13.8,31,21.8z"/>
    	<path fill="#AFA9B5" d="M17.1,14.3c-0.9,0.3-1.4,0.4-2.3,0.7c0-0.5,0-0.7,0-1.1c0-0.4,0.1-0.7,0.2-1c0.1-0.2,0.3-0.6,0.7-1c0.4-0.5,0.6-0.8,1-1.4c0.1-0.2,0.2-0.5,0.2-0.8s-0.1-0.5-0.2-0.6S16.3,9,16.1,9c-0.3,0.1-0.5,0.3-0.7,0.5c-0.2,0.3-0.3,0.6-0.3,1c-1,0.3-1.4,0.4-2.4,0.7c0.1-1,0.5-1.9,1.1-2.6c0.6-0.7,1.4-1.3,2.3-1.5c0.9-0.3,1.7-0.2,2.3,0.1c0.6,0.3,0.9,1,0.9,1.9c0,0.4-0.1,0.7-0.2,0.9c-0.1,0.2-0.2,0.4-0.2,0.5c0,0.1-0.1,0.2-0.3,0.5c-0.1,0.2-0.2,0.3-0.3,0.4c-0.2,0.3-0.5,0.6-0.7,0.9c-0.2,0.3-0.4,0.5-0.4,0.6c-0.1,0.2-0.1,0.4-0.1,0.6C17.1,13.8,17.1,14,17.1,14.3zM15.1,17.8c-0.3-0.2-0.4-0.5-0.4-0.8c0-0.4,0.1-0.7,0.4-1.1c0.3-0.3,0.6-0.6,0.9-0.7c0.4-0.1,0.7-0.1,0.9,0.1c0.3,0.2,0.4,0.5,0.4,0.8c0,0.4-0.1,0.7-0.4,1c-0.3,0.3-0.6,0.6-0.9,0.7C15.7,18,15.4,18,15.1,17.8z"/>
    </symbol>
    <symbol id="flag-fra" viewBox="0 0 32 24.8">
      <title>France flag</title>
      <path fill="#D31E41" d="M31,2.4c0,8,0,12,0,20c-4-1.6-6-1.4-10-0.9c0-8,0-12,0-20C25,1,27,0.8,31,2.4z"/>
			<path fill="#FFFFFF" d="M21,1.5c0,8,0,12,0,20c-4,0.5-6,1.2-10,1.8c0-8,0-12,0-20C15,2.8,17,2,21,1.5z"/>
			<path fill="#2887E5" d="M11,3.3c0,8,0,12,0,20C7,23.8,5,24,1,22.4c0-8,0-12,0-20C5,4,7,3.8,11,3.3z"/>
      <path fill="transparent" stroke="#2D3F50" stroke-width="2" stroke-linecap="round" stroke-linejoin="round" stroke-miterlimit="10" d="M31,21.8C20,18.5,12,26.3,1,23c0-8,0-12,0-20c11,3.3,19-4.4,30-1.1C31,9.8,31,13.8,31,21.8z"/>
    </symbol>
    <symbol id="flag-rou" viewBox="0 0 32 24.8">
      <title>Romania flag</title>
      <path fill="#D31E41" d="M31,2.4c0,8,0,12,0,20c-4-1.6-6-1.4-10-0.9c0-8,0-12,0-20C25,1,27,0.8,31,2.4z"/>
			<path fill="#FAD671" d="M21,1.5c0,8,0,12,0,20c-4,0.5-6,1.2-10,1.8c0-8,0-12,0-20C15,2.8,17,2,21,1.5z"/>
			<path fill="#2887E5" d="M11,3.3c0,8,0,12,0,20C7,23.8,5,24,1,22.4c0-8,0-12,0-20C5,4,7,3.8,11,3.3z"/>
      <path fill="transparent" stroke="#2D3F50" stroke-width="2" stroke-linecap="round" stroke-linejoin="round" stroke-miterlimit="10" d="M31,21.8C20,18.5,12,26.3,1,23c0-8,0-12,0-20c11,3.3,19-4.4,30-1.1C31,9.8,31,13.8,31,21.8z"/>
    </symbol>
    <symbol id="flag-alb" viewBox="0 0 32 24.8">
      <title>Albania flag</title>
      <path fill="#D31E41" d="M31,22.4c-10.5-2.7-19.5,2.7-30,0c0-8,0-12,0-20c10.5,2.7,19.5-2.7,30,0 C31,10.4,31,14.4,31,22.4z"/>
    	<path fill="#000000" d="M18.9,12.3c1-0.1,1-0.9,1-0.9c0.2-1.1,0.1-4.8,0.1-4.8c0-0.3-0.2-0.3-0.2-0.3 c-0.2,0-0.4,0.6-0.4,0.6c-0.2,0.5-1.9,1.9-1.9,1.9c-0.5,0.4-0.3,0.7-0.3,0.7c0.2,0.4-0.3,0.5-0.3,0.5c-0.4,0.1-0.4-0.4-0.4-0.4 c0.1-1,0.9-1.6,0.9-1.6c1.1-0.8,0.9-1,0.9-1c-0.2-0.3-0.9,0.1-0.9,0.1c-1.4,0.7-1.7,2.2-1.8,2.6c-0.1-0.4-0.4-1.7-1.8-1.9 c0,0-0.7-0.1-0.9,0.2c0,0-0.2,0.3,0.9,0.7c0,0,0.8,0.3,0.9,1.3c0,0,0,0.4-0.4,0.5c0,0-0.5,0-0.3-0.4c0,0,0.2-0.3-0.3-0.6 c0,0-1.7-0.8-1.9-1.2c0,0-0.3-0.6-0.4-0.5c0,0-0.2,0-0.2,0.4c0,0-0.1,3.7,0.1,4.8c0,0,0.1,0.8,1,0.6c0,0,0.7-0.1,1.6-0.8 c0,0,0,1.2-0.9,1.6c0,0-0.5,0.3-0.9-0.4c0,0-0.2-0.1-0.3,0c0,0-0.5,0.4-0.5,0.8c0,0,0,0.6,0.6,0.6c0,0,0.2,0,0.4-0.2 c0,0,0.1-0.3,0.5-0.3c0,0,0.3-0.2,0.8,0c0,0,0.2,0.2,0.4,0c0,0,0.2-0.2-0.2-0.4c0,0-0.3-0.1,0.2-0.6c0,0,0.1-0.2,0.5-0.1 c0,0,0.4,0.2-0.1,1c0,0-0.4,0.7-1.5,1.1c0,0,0.4,1.7,2.4,1.8c0,0,0,0,0,0c0,0,0,0,0,0c0,0,0,0,0,0c0,0,0,0,0,0c2-1,2.5-2.8,2.5-2.8 c-1.1,0.1-1.4-0.5-1.4-0.5c-0.5-0.6-0.1-1-0.1-1c0.3-0.3,0.5-0.1,0.5-0.1c0.5,0.3,0.2,0.5,0.2,0.5c-0.3,0.3-0.2,0.4-0.2,0.4 c0.2,0.1,0.4-0.2,0.4-0.2c0.5-0.3,0.8-0.3,0.8-0.3c0.3-0.1,0.5,0.1,0.5,0.1c0.1,0.2,0.4,0.1,0.4,0.1c0.6-0.2,0.6-0.8,0.6-0.8 c0-0.4-0.5-0.6-0.5-0.6c-0.2-0.1-0.3,0.1-0.3,0.1c-0.4,0.9-0.9,0.8-0.9,0.8c-0.9-0.1-0.9-1.2-0.9-1.2 C18.3,12.5,18.9,12.3,18.9,12.3z"/>
      <path fill="transparent" stroke="#2D3F50" stroke-width="2" stroke-linecap="round" stroke-linejoin="round" stroke-miterlimit="10" d="M31,21.8C20,18.5,12,26.3,1,23c0-8,0-12,0-20c11,3.3,19-4.4,30-1.1C31,9.8,31,13.8,31,21.8z"/>
    </symbol>
    <symbol id="flag-sui" viewBox="0 0 32 24.8">
      <title>Switzerland flag</title>
      <path fill="#D31E41" d="M31,22.4c-10.5-2.7-19.5,2.7-30,0c0-8,0-12,0-20c10.5,2.7,19.5-2.7,30,0 C31,10.4,31,14.4,31,22.4z"/>
      <path fill="#FFFFFF" d="M21.7,9c-1.6,0.2-2.4,0.3-4,0.6c0-1.6,0-2.4,0-4c-1.6,0.3-2.4,0.5-4,0.8c0,1.6,0,2.4,0,4 c-1.6,0.3-2.4,0.4-4,0.6c0,1.6,0,2.4,0,4c1.6-0.2,2.4-0.3,4-0.6c0,1.6,0,2.4,0,4c1.6-0.3,2.4-0.5,4-0.8c0-1.6,0-2.4,0-4 c1.6-0.3,2.4-0.5,4-0.6C21.7,11.4,21.7,10.6,21.7,9z"/>
      <path fill="transparent" stroke="#2D3F50" stroke-width="2" stroke-linecap="round" stroke-linejoin="round" stroke-miterlimit="10" d="M31,21.8C20,18.5,12,26.3,1,23c0-8,0-12,0-20c11,3.3,19-4.4,30-1.1C31,9.8,31,13.8,31,21.8z"/>
    </symbol>
    <symbol id="flag-wal" viewBox="0 0 32 24.8">
      <title>Wales flag</title>
      <path fill="#27AF5E" d="M31,12.4c0,4,0,6,0,10c-10.5-2.7-19.5,2.7-30,0c0-4,0-6,0-10C11.5,15.1,20.5,9.7,31,12.4z"/>
  		<path fill="#FFFFFF" d="M31,2.4c0,4,0,6,0,10c-10.5-2.7-19.5,2.7-30,0c0-4,0-6,0-10C11.5,5.1,20.5-0.3,31,2.4z"/>
      <path fill="#D31E41" d="M17.2,16.8c0.9,0.3,0.5,0.6-0.3,0.6c-0.9,0-1.2,0.1-2.1,0.5c-0.3,0.1-0.4,0.2-0.6,0.1
				c0.2,0.1-0.2-0.6-0.2-0.4c0-0.1-0.3,0.1-0.2-0.2c0-0.3,0.5-0.4,0.7-0.5c-0.1-0.3-0.5,0-0.4-0.4c0.1-0.4,0.8-0.2,1-0.2 c0.4,0.1,0.8,0.3,1.3-0.2c0.4-0.5,0.2-0.3-0.1-0.5c-0.2-0.1-0.4-0.1-0.6-0.2c-0.1-0.1-0.2-0.3-0.3-0.4c-0.3-0.1-0.9,0.2-1.2,0.5 c-0.2,0.2-0.6,0.9-0.7,1c-0.3,0.1-0.2-0.5-0.6-0.3c-0.2,0.1-0.9,1-0.9,1.2c0.1,0.5,0.6,0,0.8,0.4c0.4,0.6-1.3,0.5-1.6,0.5 c-0.6,0.1-1.8,0.9-2.1,0.4c0-0.1,0.2-0.3,0.2-0.3c0-0.1-0.3,0-0.3-0.1c0-0.1-0.2-0.1-0.1-0.3c0.1-0.2,0.4-0.1,0.5-0.2 c0.1-0.2-0.5-0.2-0.1-0.5c0.3-0.2,0.8,0.1,1.2,0.1c0.9,0,1-1,1.3-1.7c-0.7,0-0.5,0.2-0.9,0.7c-0.5,0.5-0.4-0.2-0.7-0.6 C9.8,15.3,9.4,15,9,14.6c-0.4-0.5-0.2-0.5-0.6-0.2c-0.2,0.1-0.7,0.6-0.8,0.2c-0.1-0.2,0.6-1,0.7-1.3c0.2-0.7-1.2-2.4,0.3-1.5 c0.1-0.3-0.1-0.8,0.1-0.9c0.3-0.1,0.5,0.5,0.5,0.7c0.2-0.1,0.2-0.4,0.4-0.2c0.3,0.2-0.1,0.7-0.1,0.9c-0.1,0.4-0.3,0.3-0.1,0.8 c0.1,0.4,0.4,0.7,0.7,0.9c0.9,0.5,0.6-0.6,0.8-1.2c0.2-0.7,0.5-2,1.1-2.5c-0.5,0-0.9,1-1.2,0.8c-0.3-0.2,0-0.5-0.4-0.6 c-0.4-0.1-0.8,0.3-1.1,0.2c-0.4,0-1.3-1.1-0.8-1.2c0.2-0.1,0.9,0.3,1.2,0.4c0.4,0.1,0.6,0.1,1.1,0c-0.3-0.5-1.9,0-0.9-0.7 c0.4-0.3,0.9-0.3,1.4-0.5c0.6-0.3,0.8-0.3,1.4-0.4c0.4-0.1,2.2-1.3,1.7-0.1c-0.3,0.6-0.5,0.4-0.2,0.9c0.4,0.4,0.4,0.1,0.1,0.5 c0.1,0.1,0.4,0.3,0.4,0.4c-0.1,0.2-0.2,0.1-0.2,0.2c0,0-0.3-0.1-0.3,0.1c-0.1,0.3,0.3,0.2,0.4,0.3c0.3,0.7,0,0.2-0.3,0.4 c-0.3,0.3,0.2,0.4,0.2,0.8c0,0.1-0.3,0-0.3,0.2c0,0.3,0.4,0.1,0.5,0c1-0.2,0.7-0.7,0.8-1.4c0.2-1.3,1.8-2.4,2.8-3.2 c0.2-0.2,1.3-1.1,1.4-0.9c0.3,0.4-0.7,1.1,0.4,1.1c0.5,0,1.4-0.8,1.9-1c0.7-0.3,0.4,0,0,0.4c-0.2,0.2-0.5,0.4-0.5,0.7 c0,0.3,0.3,0.4,0.3,0.6c0,0.3-0.7,0.6-1,0.9c-0.2,0.3-0.3,0.6-0.3,0.9c0,0.2,0.2,0.4,0.1,0.6c-0.1,0.1-1.2,0.3-1.1,0.6 c0,0.1,1.5,0,1.6,0c0.4,0,1.1,0.1,1.4-0.3c-0.6,0.1-1.5,0.1-1.4-0.8c0.2-1.1,1.3-0.7,1.9-0.8c0.3-0.1,0.1-0.2,0-0.3 c-0.2-0.1-0.5,0.3-0.5-0.2c0-0.1,1.6-1.6,1.6-1.6c0.4,0,0.2,1,0.2,1.5c0,0.3,0.3,0.8,0,0.8c-0.2,0-0.3-0.3-0.5-0.2 c-0.4,0.1-0.1,0.8-0.1,1c0,0.4,0,0.7-0.3,1.1c-0.5,0.7-1.3,1-2,1.3c0.4,0.2,0.9,0.3,1.3,0.6c0.1,0.1,0.3,0.2,0.3,0.3 c0,0.4-0.2,0.1-0.3,0.3c-0.4,0.4-0.1-0.3-0.3,0.3c-0.1,0.2,0,0.6,0,0.8c-0.1,0.6-0.3,0.7,0.2,1.1c0.1,0.1,0.8,0.2,0.5,0.5 c-0.2,0.2-1.2-0.1-1.4,0c-0.6,0.1-1,0.3-1.6,0.5c-0.5,0.2-0.8,0.2-0.4-0.4c-0.1,0-0.6,0.1-0.6,0c-0.1-0.2,0.3-0.5,0.4-0.6 c0-0.1-0.4,0-0.3-0.3c0.1-0.2,0.3-0.3,0.6-0.3c0.5,0,0.8,0.7,1.3,0.2c0.3-0.4,0.4-1.3,0-1.6c-0.4-0.3-1.3,0-1.9,0 c-0.3-0.1-1.2-0.6-1.3,0.2c-0.1,0.6,0.8,0.4,1.1,0.5c0.2,0.1,0.5,0.3,0.3,0.6c-0.2,0.2-0.4,0-0.6,0 C18.2,15.5,17.2,16.8,17.2,16.8C17.2,16.8,17.6,16.4,17.2,16.8z"/>
      <path fill="transparent" stroke="#2D3F50" stroke-width="2" stroke-linecap="round" stroke-linejoin="round" stroke-miterlimit="10" d="M31,21.8C20,18.5,12,26.3,1,23c0-8,0-12,0-20c11,3.3,19-4.4,30-1.1C31,9.8,31,13.8,31,21.8z"/>
    </symbol>
    <symbol id="flag-svk" viewBox="0 0 32 24.8">
      <title>Slovakia flag</title>
      <path fill="#D31E41" d="M31,15.7c0,2.7,0,4,0,6.7c-10.5-2.7-19.5,2.7-30,0c0-2.7,0-4,0-6.7C11.5,18.4,20.5,13,31,15.7 z"/>
      <path fill="#2887E5" d="M31,9c0,2.7,0,4,0,6.7c-10.5-2.7-19.5,2.7-30,0c0-2.7,0-4,0-6.7C11.5,11.7,20.5,6.4,31,9z"/>
      <path fill="#FFFFFF" d="M31,2.4c0,2.7,0,4,0,6.7c-10.5-2.7-19.5,2.7-30,0c0-2.7,0-4,0-6.7C11.5,5.1,20.5-0.3,31,2.4z"/>
      <path fill="#2887E5" d="M7.9,15.8c0.2-0.5,0.5-0.8,1-0.9c0.5,0,0.8,0.3,1,0.5c0.2-0.6,0.5-1,0.9-1.2 c0,0,0.1-0.1,0.2-0.1c0.1,0,0.2-0.1,0.2-0.1c0.1,0,0.2,0,0.2,0c0.1,0,0.1,0,0.2,0c0.4,0.1,0.7,0.5,0.9,1c0.2-0.2,0.5-0.7,1-0.7 c0.5-0.1,0.9,0.2,1.1,0.6c0,0-1,2-3.3,3.3C8.9,17.6,7.9,15.8,7.9,15.8z"/>
      <path fill="#D31E41" d="M11.6,11.6c0-0.2,0-0.9,0-1.1c0.8-0.1,1.4-0.1,1.8-0.1c-0.1-0.3-0.1-0.9-0.1-1.3 C13,9.4,12,9.8,11.6,9.8c0-0.5,0.1-1.2,0.2-1.6c0-0.2,0-0.2,0-0.4c1.4-0.2,2.1-0.3,3.5-0.6c0.1,1.5,0.2,3.8,0.1,5 c0,0.4-0.2,1.6-0.9,2.8c-0.2-0.4-0.6-0.7-1.1-0.6c-0.5,0.1-0.8,0.5-1,0.7c-0.2-0.5-0.5-0.9-0.9-1c0,0,0-1.5,0-1.7 c0.7-0.1,1.7-0.2,2.2-0.1c-0.1-0.3-0.1-0.9,0-1.3C13.5,11.2,12.3,11.6,11.6,11.6z"/>
      <path d="M11.2,14.1c0.1,0,0.2,0,0.2,0C11.3,14.1,11.3,14.1,11.2,14.1c-0.1,0-0.1,0-0.2,0.1 C11,14.1,11.1,14.1,11.2,14.1z"/>
      <path fill="#FFFFFF" d="M10.8,12.5c-0.7,0.1-1.7,0.3-2.2,0.5c0.1-0.3,0.1-0.9,0-1.3c0.3,0.1,1.5,0.2,2.2,0 c0-0.2,0-0.9,0-1.1C10,10.8,9.4,10.9,9,11.1c0.1-0.3,0.1-0.9,0.1-1.3c0.3,0.1,1.3,0.2,1.7,0.1c0-0.5-0.1-1.2-0.2-1.5 c0.1,0,0.4,0,0.6,0c0.1,0,0.5-0.1,0.6-0.1c-0.1,0.4-0.2,1.1-0.2,1.6c0.4,0,1.4-0.3,1.7-0.5c0,0.4-0.1,1,0.1,1.3 c-0.4-0.1-1-0.1-1.8,0.1c0,0.2,0,0.9,0,1.1c0.7,0,1.9-0.4,2.2-0.6c-0.1,0.4-0.1,1,0,1.3c-0.5-0.1-1.5,0-2.2,0.1  c0,0.2,0,1.7,0,1.7c0,0-0.1,0-0.2,0c-0.1,0-0.2,0-0.2,0s-0.2,0-0.2,0.1c0,0-0.1,0-0.2,0.1C10.8,14.2,10.8,12.7,10.8,12.5z"/>
      <path fill="#D31E41" d="M7.1,8.1C9,8.1,9.9,8,11.8,7.8c0,0.2,0,0.2,0,0.4c-0.1,0-0.4,0.1-0.6,0.1 c-0.1,0-0.5,0.1-0.6,0c0.1,0.3,0.2,1,0.2,1.5C10.4,10,9.4,9.9,9.1,9.8c0,0.4,0.1,1-0.1,1.3c0.4-0.2,1-0.3,1.8-0.4 c0,0.2,0,0.9,0,1.1c-0.7,0.2-1.9,0.1-2.2,0c0.1,0.4,0.1,1,0,1.3c0.5-0.2,1.5-0.4,2.2-0.5c0,0.2,0,1.7,0,1.7 c-0.4,0.2-0.7,0.7-0.9,1.2c-0.2-0.2-0.5-0.5-1-0.5c-0.5,0-0.9,0.4-1,0.9C7.2,14.7,7,13.6,7,13.1C6.9,12,7.1,9.7,7.1,8.1z"/>
      <path fill="#FFFFFF" d="M11.1,18.5c-4.1-1.1-4.4-4.9-4.4-5.3c0-1.1,0.1-3.1,0.1-4.5c0-0.2,0-0.3,0-0.5 c0-0.1,0-0.2,0-0.3c0.1,0,0.2,0,0.3,0c3.2,0,4.9-0.4,8.1-1c0.1,0,0.2,0,0.3-0.1c0,0.1,0,0.2,0,0.3c0,0.2,0,0.3,0,0.5 c0.1,1.5,0.2,3.4,0.1,4.5c0,0.4-0.3,4.2-4.4,6.4C11.3,18.5,11.2,18.5,11.1,18.5C11.1,18.5,11.1,18.5,11.1,18.5z M7.9,15.8 c0,0,1,1.8,3.3,2.4c2.3-1.3,3.3-3.2,3.3-3.3c0.7-1.3,0.9-2.4,0.9-2.8c0.1-1.2-0.1-3.5-0.1-5c-1.4,0.3-2.1,0.4-3.5,0.6 C9.9,8,9,8.1,7.1,8.1C7.1,9.7,6.9,12,7,13.1C7,13.6,7.2,14.7,7.9,15.8z"/>
      <path fill="transparent" stroke="#2D3F50" stroke-width="2" stroke-linecap="round" stroke-linejoin="round" stroke-miterlimit="10" d="M31,21.8C20,18.5,12,26.3,1,23c0-8,0-12,0-20c11,3.3,19-4.4,30-1.1C31,9.8,31,13.8,31,21.8z"/>
    </symbol>
    <symbol id="flag-eng" viewBox="0 0 32 24.8">
      <title>England flag</title>
      <path fill="#FFFFFF" d="M31,22.4c-10.5-2.7-19.5,2.7-30,0c0-8,0-12,0-20c10.5,2.7,19.5-2.7,30,0 C31,10.4,31,14.4,31,22.4z"/>
  		<path fill="#D31E41" d="M19,1.8c-2.4,0.4-3.6,0.7-6,1.2c0,2.8,0,4.2,0,7c-4.8,0.8-7.2,1.3-12-0.6c0,2.4,0,3.6,0,6
  			c4.8,1.9,7.2,1.4,12,0.6c0,2.8,0,4.2,0,7c2.4-0.4,3.6-0.7,6-1.2c0-2.8,0-4.2,0-7c4.8-0.8,7.2-1.3,12,0.6c0-2.4,0-3.6,0-6
  			C26.2,7.5,23.8,8,19,8.8C19,6,19,4.6,19,1.8z"/>
      <path fill="transparent" stroke="#2D3F50" stroke-width="2" stroke-linecap="round" stroke-linejoin="round" stroke-miterlimit="10" d="M31,21.8C20,18.5,12,26.3,1,23c0-8,0-12,0-20c11,3.3,19-4.4,30-1.1C31,9.8,31,13.8,31,21.8z"/>
    </symbol>
    <symbol id="flag-rus" viewBox="0 0 32 24.8">
      <title>Russia flag</title>
      <path fill="#D31E41" d="M31,15.7c0,2.7,0,4,0,6.7c-10.5-2.7-19.5,2.7-30,0c0-2.7,0-4,0-6.7C11.5,18.4,20.5,13,31,15.7 z"/>
      <path fill="#2887E5" d="M31,9c0,2.7,0,4,0,6.7c-10.5-2.7-19.5,2.7-30,0c0-2.7,0-4,0-6.7C11.5,11.7,20.5,6.4,31,9z"/>
      <path fill="#FFFFFF" d="M31,2.4c0,2.7,0,4,0,6.7c-10.5-2.7-19.5,2.7-30,0c0-2.7,0-4,0-6.7C11.5,5.1,20.5-0.3,31,2.4z"/>
      <path fill="transparent" stroke="#2D3F50" stroke-width="2" stroke-linecap="round" stroke-linejoin="round" stroke-miterlimit="10" d="M31,21.8C20,18.5,12,26.3,1,23c0-8,0-12,0-20c11,3.3,19-4.4,30-1.1C31,9.8,31,13.8,31,21.8z"/>
    </symbol>
    <symbol id="flag-tur" viewBox="0 0 32 24.8">
      <title>Turkey flag</title>
      <path fill="#D31E41" d="M31,22.4c-10.5-2.7-19.5,2.7-30,0c0-8,0-12,0-20c10.5,2.7,19.5-2.7,30,0C31,10.4,31,14.4,31,22.4z"/>
      <path fill="#FFFFFF" d="M16.8,9.8c0.4,0.5,0.7,0.8,1.1,1.3c0.7-0.4,1.1-0.5,1.8-0.9c-0.4,0.7-0.6,1-1.1,1.7 c0.4,0.5,0.7,0.8,1.1,1.3c-0.7-0.1-1.1-0.2-1.8-0.2c-0.4,0.7-0.6,1-1.1,1.7c0-0.7,0-1.1,0-1.8c-0.7-0.1-1.1-0.1-1.8-0.2
      c0.7-0.4,1.1-0.6,1.8-0.9C16.8,10.9,16.8,10.5,16.8,9.8z"/>
      <path fill="#FFFFFF" d="M12.2,17.1c-2.2,0.4-4-1.4-4-3.6c0-2.2,1.8-4.1,4-4.5c1.4-0.2,2.5,0.2,3.3,1.2
      C14.6,8.7,13,8,11,8.2c-2.8,0.4-5,2.5-5,5.3c0,2.8,2.2,5.2,5,4.8c2-0.3,3.8-1.9,4.6-3.8C14.9,15.8,13.6,16.9,12.2,17.1z"/>
      <path fill="transparent" stroke="#2D3F50" stroke-width="2" stroke-linecap="round" stroke-linejoin="round" stroke-miterlimit="10" d="M31,21.8C20,18.5,12,26.3,1,23c0-8,0-12,0-20c11,3.3,19-4.4,30-1.1C31,9.8,31,13.8,31,21.8z"/>
    </symbol>
    <symbol id="flag-cro" viewBox="0 0 32 24.8">
      <title>Croatia flag</title>
      <path fill="#2887E5" d="M31,15.7c0,2.7,0,4,0,6.7c-10.5-2.7-19.5,2.7-30,0c0-2.7,0-4,0-6.7C11.5,18.4,20.5,13,31,15.7 z"/>
      <path fill="#FFFFFF" d="M31,9c0,2.7,0,4,0,6.7c-10.5-2.7-19.5,2.7-30,0c0-2.7,0-4,0-6.7C11.5,11.7,20.5,6.4,31,9z"/>
      <path fill="#D31E41" d="M31,2.4c0,2.7,0,4,0,6.7c-10.5-2.7-19.5,2.7-30,0c0-2.7,0-4,0-6.7C11.5,5.1,20.5-0.3,31,2.4z"/>
      <path fill="#FFFFFF" d="M14.8,16.5c0,0.8,0,1.2,0,2.1c-1-0.1-1.8-0.7-2.2-1.6C13.4,16.8,13.9,16.7,14.8,16.5z"/>
  		<path fill="#FFFFFF" d="M17.2,16c0.9-0.2,1.3-0.2,2.1-0.4c-0.4,1-1.2,1.9-2.1,2.4C17.2,17.3,17.2,16.8,17.2,16z"/>
  		<path fill="#FFFFFF" d="M17.2,13.5c0,1,0,1.5,0,2.5c-1,0.2-1.5,0.3-2.5,0.5c0-1,0-1.5,0-2.5 C15.8,13.8,16.2,13.7,17.2,13.5z"/>
  		<path fill="#FFFFFF" d="M19.7,10.6c0,1,0,1.5,0,2.5c-1,0.2-1.5,0.3-2.5,0.5c0-1,0-1.5,0-2.5 C18.2,10.9,18.7,10.8,19.7,10.6z"/>
  		<path fill="#FFFFFF" d="M14.8,11.5c0,1,0,1.5,0,2.5c-1,0.2-1.5,0.3-2.5,0.5c0-1,0-1.5,0-2.5 C13.3,11.8,13.8,11.7,14.8,11.5z"/>
  		<path fill="#FFFFFF" d="M17.2,8.6c0,1,0,1.5,0,2.5c-1,0.2-1.5,0.3-2.5,0.5c0-1,0-1.5,0-2.5 C15.8,8.9,16.2,8.8,17.2,8.6z"/>
  		<path fill="#D31E41" d="M17.2,16c0,0.8,0,1.2,0,2c-0.4,0.2-0.8,0.4-1.3,0.5c-0.4,0.1-0.9,0.1-1.2,0 c0-0.8,0-1.2,0-2.1C15.8,16.3,16.2,16.2,17.2,16z"/>
  		<path fill="#D31E41" d="M19.7,8.1c0,1,0,1.5,0,2.5c-1,0.2-1.5,0.3-2.5,0.5c0-1,0-1.5,0-2.5 C18.2,8.4,18.7,8.3,19.7,8.1z"/>
  		<path fill="#D31E41" d="M19.7,13.1c0,0.4,0,0.5,0,0.9c0,0.6-0.1,1.1-0.3,1.6c-0.9,0.1-1.3,0.2-2.1,0.4 c0-1,0-1.5,0-2.5C18.2,13.3,18.7,13.3,19.7,13.1z"/>
  		<path fill="#D31E41" d="M17.2,11.1c0,1,0,1.5,0,2.5c-1,0.2-1.5,0.3-2.5,0.5c0-1,0-1.5,0-2.5 C15.8,11.3,16.2,11.2,17.2,11.1z"/>
  		<path fill="#D31E41" d="M14.8,14c0,1,0,1.5,0,2.5c-0.9,0.2-1.3,0.3-2.2,0.4c-0.2-0.4-0.3-0.8-0.3-1.3 c0-0.5,0-0.7,0-1.1C13.3,14.3,13.8,14.2,14.8,14z"/>
  		<path fill="#D31E41" d="M14.8,9.1c0,1,0,1.5,0,2.5c-1,0.2-1.5,0.3-2.5,0.5c0-1,0-1.5,0-2.5 C13.3,9.3,13.8,9.2,14.8,9.1z"/>
      <path fill="transparent" stroke="#2D3F50" stroke-width="2" stroke-linecap="round" stroke-linejoin="round" stroke-miterlimit="10" d="M31,21.8C20,18.5,12,26.3,1,23c0-8,0-12,0-20c11,3.3,19-4.4,30-1.1C31,9.8,31,13.8,31,21.8z"/>
    </symbol>
    <symbol id="flag-pol" viewBox="0 0 32 24.8">
      <title>Poland flag</title>
      <path fill="#FFFFFF" d="M31,12.4c0,4,0,6,0,10c-10.5-2.7-19.5,2.7-30,0c0-4,0-6,0-10C11.5,15.1,20.5,9.7,31,12.4z"/>
			<path fill="#D31E41" d="M31,2.4c0,4,0,6,0,10c-10.5-2.7-19.5,2.7-30,0c0-4,0-6,0-10C11.5,5.1,20.5-0.3,31,2.4z"/>
      <path fill="transparent" stroke="#2D3F50" stroke-width="2" stroke-linecap="round" stroke-linejoin="round" stroke-miterlimit="10" d="M31,21.8C20,18.5,12,26.3,1,23c0-8,0-12,0-20c11,3.3,19-4.4,30-1.1C31,9.8,31,13.8,31,21.8z"/>
    </symbol>
    <symbol id="flag-nir" viewBox="0 0 32 24.8">
      <title>Northern Ireland flag</title>
      <path fill="#FFFFFF" d="M31,22.4c-10.5-2.7-19.5,2.7-30,0c0-8,0-12,0-20c10.5,2.7,19.5-2.7,30,0 C31,10.4,31,14.4,31,22.4z"/>
  		<path fill="#D31E41" d="M19,1.8c-2.4,0.4-3.6,0.7-6,1.2c0,2.8,0,4.2,0,7c-4.8,0.8-7.2,1.3-12-0.6c0,2.4,0,3.6,0,6
  			c4.8,1.9,7.2,1.4,12,0.6c0,2.8,0,4.2,0,7c2.4-0.4,3.6-0.7,6-1.2c0-2.8,0-4.2,0-7c4.8-0.8,7.2-1.3,12,0.6c0-2.4,0-3.6,0-6
  			C26.2,7.5,23.8,8,19,8.8C19,6,19,4.6,19,1.8z"/>
      <path fill="#FFFFFF" d="M16,5.3c0.7,1.5,1.1,2.2,1.8,3.7c1.7-0.5,2.6-0.8,4.4-1.1c-1,1.5-1.6,2.3-2.6,3.9 c1,1.2,1.6,1.9,2.6,3.2c-1.7,0-2.6,0.1-4.4,0.2c-0.7,1.7-1.1,2.6-1.8,4.4c-0.7-1.5-1.1-2.2-1.8-3.7c-1.7,0.5-2.6,0.8-4.4,1.1 c1-1.5,1.6-2.3,2.6-3.9c-1-1.2-1.6-1.9-2.6-3.2c1.7,0,2.6-0.1,4.4-0.2C14.9,8,15.3,7.1,16,5.3z"/>
      <path fill="#D31E41" d="M16.7,14.3c-0.4,0.1-0.7,0.1-1.1,0.2c0,0-1.3-2.4-0.2-3.8C16.5,9.2,17,9.8,17,9.8 c0,0.9,0,1.4,0,2.3c0.1-0.4,0.2-0.6,0.4-0.9c0.2,0,0.2,0,0.4-0.1c0,1-0.1,1.1-0.3,1.4C17.2,12.7,16.8,14.2,16.7,14.3z"/>
      <path fill="transparent" stroke="#2D3F50" stroke-width="2" stroke-linecap="round" stroke-linejoin="round" stroke-miterlimit="10" d="M31,21.8C20,18.5,12,26.3,1,23c0-8,0-12,0-20c11,3.3,19-4.4,30-1.1C31,9.8,31,13.8,31,21.8z"/>
    </symbol>
    <symbol id="flag-ger" viewBox="0 0 32 24.8">
      <title>Germany flag</title>
      <path fill="#FAD671" d="M31,15.7c0,2.7,0,4,0,6.7c-10.5-2.7-19.5,2.7-30,0c0-2.7,0-4,0-6.7C11.5,18.4,20.5,13,31,15.7 z"/>
      <path fill="#D31E41" d="M31,9c0,2.7,0,4,0,6.7c-10.5-2.7-19.5,2.7-30,0c0-2.7,0-4,0-6.7C11.5,11.7,20.5,6.4,31,9z"/>
      <path fill="#000000" d="M31,2.4c0,2.7,0,4,0,6.7c-10.5-2.7-19.5,2.7-30,0c0-2.7,0-4,0-6.7C11.5,5.1,20.5-0.3,31,2.4z"/>
      <path fill="transparent" stroke="#2D3F50" stroke-width="2" stroke-linecap="round" stroke-linejoin="round" stroke-miterlimit="10" d="M31,21.8C20,18.5,12,26.3,1,23c0-8,0-12,0-20c11,3.3,19-4.4,30-1.1C31,9.8,31,13.8,31,21.8z"/>
    </symbol>
    <symbol id="flag-ukr" viewBox="0 0 32 24.8">
      <title>Ukraine flag</title>
      <path fill="#FAD671" d="M31,12.4c0,4,0,6,0,10c-10.5-2.7-19.5,2.7-30,0c0-4,0-6,0-10C11.5,15.1,20.5,9.7,31,12.4z"/>
			<path fill="#2887E5" d="M31,2.4c0,4,0,6,0,10c-10.5-2.7-19.5,2.7-30,0c0-4,0-6,0-10C11.5,5.1,20.5-0.3,31,2.4z"/>
      <path fill="transparent" stroke="#2D3F50" stroke-width="2" stroke-linecap="round" stroke-linejoin="round" stroke-miterlimit="10" d="M31,21.8C20,18.5,12,26.3,1,23c0-8,0-12,0-20c11,3.3,19-4.4,30-1.1C31,9.8,31,13.8,31,21.8z"/>
    </symbol>
    <symbol id="flag-esp" viewBox="0 0 32 24.8">
      <title>Spain flag</title>
      <path fill="#D31E41" d="M31,15.7c0,2.7,0,4,0,6.7c-10.5-2.7-19.5,2.7-30,0c0-2.7,0-4,0-6.7C11.5,18.4,20.5,13,31,15.7 z"/>
      <path fill="#FAD671" d="M31,9c0,2.7,0,4,0,6.7c-10.5-2.7-19.5,2.7-30,0c0-2.7,0-4,0-6.7C11.5,11.7,20.5,6.4,31,9z"/>
      <path fill="#D31E41" d="M31,2.4c0,2.7,0,4,0,6.7c-10.5-2.7-19.5,2.7-30,0c0-2.7,0-4,0-6.7C11.5,5.1,20.5-0.3,31,2.4z"/>
      <path fill="transparent" stroke="#2D3F50" stroke-width="2" stroke-linecap="round" stroke-linejoin="round" stroke-miterlimit="10" d="M31,21.8C20,18.5,12,26.3,1,23c0-8,0-12,0-20c11,3.3,19-4.4,30-1.1C31,9.8,31,13.8,31,21.8z"/>
    </symbol>
    <symbol id="flag-cze" viewBox="0 0 32 24.8">
      <title>Czech Republic flag</title>
      <path fill="#D31E41" d="M31,12.4c0,4,0,6,0,10c-10.5-2.7-19.5,2.7-30,0c0-4,0-6,0-10C11.5,15.1,20.5,9.7,31,12.4z"/>
			<path fill="#FFFFFF" d="M31,2.4c0,4,0,6,0,10c-10.5-2.7-19.5,2.7-30,0c0-4,0-6,0-10C11.5,5.1,20.5-0.3,31,2.4z"/>
      <path fill="#2887E5" d="M14.2,12.7c-5.3,5-8,7.8-13.2,9.7c0-8,0-12,0-20C6.3,8.5,8.9,9.7,14.2,12.7z"/>
      <path fill="transparent" stroke="#2D3F50" stroke-width="2" stroke-linecap="round" stroke-linejoin="round" stroke-miterlimit="10" d="M31,21.8C20,18.5,12,26.3,1,23c0-8,0-12,0-20c11,3.3,19-4.4,30-1.1C31,9.8,31,13.8,31,21.8z"/>
    </symbol>
    <symbol id="flag-irl" viewBox="0 0 32 24.8">
      <title>Republic of Ireland flag</title>
      <path fill="#F2A951" d="M31,2.4c0,8,0,12,0,20c-4-1.6-6-1.4-10-0.9c0-8,0-12,0-20C25,1,27,0.8,31,2.4z"/>
			<path fill="#FFFFFF" d="M21,1.5c0,8,0,12,0,20c-4,0.5-6,1.2-10,1.8c0-8,0-12,0-20C15,2.8,17,2,21,1.5z"/>
			<path fill="#27AF5E" d="M11,3.3c0,8,0,12,0,20C7,23.8,5,24,1,22.4c0-8,0-12,0-20C5,4,7,3.8,11,3.3z"/>
      <path fill="transparent" stroke="#2D3F50" stroke-width="2" stroke-linecap="round" stroke-linejoin="round" stroke-miterlimit="10" d="M31,21.8C20,18.5,12,26.3,1,23c0-8,0-12,0-20c11,3.3,19-4.4,30-1.1C31,9.8,31,13.8,31,21.8z"/>
    </symbol>
    <symbol id="flag-swe" viewBox="0 0 32 24.8">
      <title>Sweden flag</title>
      <path fill="#2887E5" d="M31,22.4c-10.5-2.7-19.5,2.7-30,0c0-8,0-12,0-20c10.5,2.7,19.5-2.7,30,0 C31,10.4,31,14.4,31,22.4z"/>
      <path fill="#FAD671" d="M15,2.6c-2.4,0.5-3.6,0.7-6,0.9c0,2.8,0,4.2,0,7c-3.2,0.2-4.8,0.2-8-1.1c0,2.4,0,3.6,0,6 c3.2,1.3,4.8,1.3,8,1.1c0,2.8,0,4.2,0,7c2.4-0.2,3.6-0.4,6-0.9c0-2.8,0-4.2,0-7c6.4-1.3,9.6-2.8,16-0.2c0-2.4,0-3.6,0-6 c-6.4-2.6-9.6-1.1-16,0.2C15,6.8,15,5.4,15,2.6z"/>
      <path fill="transparent" stroke="#2D3F50" stroke-width="2" stroke-linecap="round" stroke-linejoin="round" stroke-miterlimit="10" d="M31,21.8C20,18.5,12,26.3,1,23c0-8,0-12,0-20c11,3.3,19-4.4,30-1.1C31,9.8,31,13.8,31,21.8z"/>
    </symbol>
    <symbol id="flag-bel" viewBox="0 0 32 24.8">
      <title>Belgium flag</title>
      <path fill="#D31E41" d="M31,2.4c0,8,0,12,0,20c-4-1.6-6-1.4-10-0.9c0-8,0-12,0-20C25,1,27,0.8,31,2.4z"/>
			<path fill="#FAD671" d="M21,1.5c0,8,0,12,0,20c-4,0.5-6,1.2-10,1.8c0-8,0-12,0-20C15,2.8,17,2,21,1.5z"/>
			<path fill="#000000" d="M11,3.3c0,8,0,12,0,20C7,23.8,5,24,1,22.4c0-8,0-12,0-20C5,4,7,3.8,11,3.3z"/>
      <path fill="transparent" stroke="#2D3F50" stroke-width="2" stroke-linecap="round" stroke-linejoin="round" stroke-miterlimit="10" d="M31,21.8C20,18.5,12,26.3,1,23c0-8,0-12,0-20c11,3.3,19-4.4,30-1.1C31,9.8,31,13.8,31,21.8z"/>
    </symbol>
    <symbol id="flag-ita" viewBox="0 0 32 24.8">
      <title>Italy flag</title>
      <path fill="#D31E41" d="M31,2.4c0,8,0,12,0,20c-4-1.6-6-1.4-10-0.9c0-8,0-12,0-20C25,1,27,0.8,31,2.4z"/>
			<path fill="#FFFFFF" d="M21,1.5c0,8,0,12,0,20c-4,0.5-6,1.2-10,1.8c0-8,0-12,0-20C15,2.8,17,2,21,1.5z"/>
			<path fill="#27AF5E" d="M11,3.3c0,8,0,12,0,20C7,23.8,5,24,1,22.4c0-8,0-12,0-20C5,4,7,3.8,11,3.3z"/>
      <path fill="transparent" stroke="#2D3F50" stroke-width="2" stroke-linecap="round" stroke-linejoin="round" stroke-miterlimit="10" d="M31,21.8C20,18.5,12,26.3,1,23c0-8,0-12,0-20c11,3.3,19-4.4,30-1.1C31,9.8,31,13.8,31,21.8z"/>
    </symbol>
    <symbol id="flag-aut" viewBox="0 0 32 24.8">
      <title>Austria flag</title>
      <path fill="#D31E41" d="M31,15.7c0,2.7,0,4,0,6.7c-10.5-2.7-19.5,2.7-30,0c0-2.7,0-4,0-6.7C11.5,18.4,20.5,13,31,15.7 z"/>
      <path fill="#FFFFFF" d="M31,9c0,2.7,0,4,0,6.7c-10.5-2.7-19.5,2.7-30,0c0-2.7,0-4,0-6.7C11.5,11.7,20.5,6.4,31,9z"/>
      <path fill="#D31E41" d="M31,2.4c0,2.7,0,4,0,6.7c-10.5-2.7-19.5,2.7-30,0c0-2.7,0-4,0-6.7C11.5,5.1,20.5-0.3,31,2.4z"/>
      <path fill="transparent" stroke="#2D3F50" stroke-width="2" stroke-linecap="round" stroke-linejoin="round" stroke-miterlimit="10" d="M31,21.8C20,18.5,12,26.3,1,23c0-8,0-12,0-20c11,3.3,19-4.4,30-1.1C31,9.8,31,13.8,31,21.8z"/>
    </symbol>
    <symbol id="flag-hun" viewBox="0 0 32 24.8">
      <title>Hungary flag</title>
      <path fill="#27AF5E" d="M31,15.7c0,2.7,0,4,0,6.7c-10.5-2.7-19.5,2.7-30,0c0-2.7,0-4,0-6.7C11.5,18.4,20.5,13,31,15.7 z"/>
      <path fill="#FFFFFF" d="M31,9c0,2.7,0,4,0,6.7c-10.5-2.7-19.5,2.7-30,0c0-2.7,0-4,0-6.7C11.5,11.7,20.5,6.4,31,9z"/>
      <path fill="#D31E41" d="M31,2.4c0,2.7,0,4,0,6.7c-10.5-2.7-19.5,2.7-30,0c0-2.7,0-4,0-6.7C11.5,5.1,20.5-0.3,31,2.4z"/>
      <path fill="transparent" stroke="#2D3F50" stroke-width="2" stroke-linecap="round" stroke-linejoin="round" stroke-miterlimit="10" d="M31,21.8C20,18.5,12,26.3,1,23c0-8,0-12,0-20c11,3.3,19-4.4,30-1.1C31,9.8,31,13.8,31,21.8z"/>
    </symbol>
    <symbol id="flag-por" viewBox="0 0 32 24.8">
      <title>Portugal flag</title>
      <path fill="#D31E41" d="M31,2.4c0,8,0,12,0,20c-8-3.2-12-0.2-20,0.9c0-8,0-12,0-20C19,2.2,23-0.8,31,2.4z"/>
      <path fill="#27AF5E" d="M11,3.3c0,8,0,12,0,20C7,23.8,5,24,1,22.4c0-8,0-12,0-20C5,4,7,3.8,11,3.3z"/>
      <path fill="#FAD671" d="M14.4,12.7c0,1.9-1.5,3.7-3.4,4c-1.9,0.3-3.4-1.3-3.4-3.2c0-1.9,1.5-3.4,3.4-3.7 C12.9,9.6,14.4,10.8,14.4,12.7z"/>
      <path fill="#FFFFFF" d="M11,15.2c-1,0.1-1.9-0.6-1.9-1.7s0.8-1.9,1.9-2.1c1-0.1,1.9,0.5,1.9,1.6S12,15,11,15.2z"/>
      <path fill="#D31E41" d="M11,11.9c0.7-0.1,1.4,0.4,1.4,1.2c0,0.7-0.6,1.5-1.4,1.6c-0.7,0.1-1.4-0.5-1.4-1.2 C9.6,12.7,10.3,12,11,11.9 M11,10.9c-1.3,0.2-2.4,1.3-2.4,2.6c0,1.3,1.1,2.3,2.4,2.1c1.3-0.2,2.4-1.4,2.4-2.7 C13.4,11.6,12.3,10.8,11,10.9L11,10.9z"/>
      <path fill="transparent" stroke="#2D3F50" stroke-width="2" stroke-linecap="round" stroke-linejoin="round" stroke-miterlimit="10" d="M31,21.8C20,18.5,12,26.3,1,23c0-8,0-12,0-20c11,3.3,19-4.4,30-1.1C31,9.8,31,13.8,31,21.8z"/>
    </symbol>
    <symbol id="flag-isl" viewBox="0 0 32 24.8">
      <title>Iceland flag</title>
      <path fill="#2887E5" d="M31,22.4c-10.5-2.7-19.5,2.7-30,0c0-8,0-12,0-20c10.5,2.7,19.5-2.7,30,0 C31,10.4,31,14.4,31,22.4z"/>
      <path fill="#D31E41" stroke="#FFFFFF" stroke-width="1" d="M15,2.6c-2.4,0.5-3.6,0.7-6,0.9c0,2.8,0,4.2,0,7c-3.2,0.2-4.8,0.2-8-1.1c0,2.4,0,3.6,0,6 c3.2,1.3,4.8,1.3,8,1.1c0,2.8,0,4.2,0,7c2.4-0.2,3.6-0.4,6-0.9c0-2.8,0-4.2,0-7c6.4-1.3,9.6-2.8,16-0.2c0-2.4,0-3.6,0-6 c-6.4-2.6-9.6-1.1-16,0.2C15,6.8,15,5.4,15,2.6z"/>
      <path fill="transparent" stroke="#2D3F50" stroke-width="2" stroke-linecap="round" stroke-linejoin="round" stroke-miterlimit="10" d="M31,21.8C20,18.5,12,26.3,1,23c0-8,0-12,0-20c11,3.3,19-4.4,30-1.1C31,9.8,31,13.8,31,21.8z"/>
    </symbol>
  </defs>
</svg>
